<svg width="143" height="143" viewBox="0 0 143 143" fill="none" xmlns="http://www.w3.org/2000/svg">
<circle cx="71.5" cy="71.5" r="71.5" fill="#DFF6FF"/>
<path d="M60.775 90.1942H36.2713C34.4838 90.1942 33.1432 88.7791 33.1432 87.066V84.5338C33.1432 84.0869 33.2177 83.7145 33.3667 83.3421L43.4958 58.3916C44.4641 55.9337 47.8901 55.7103 49.1562 58.0192L63.5307 83.1186C63.8286 83.5655 63.9776 84.1614 63.9776 84.6827V86.9916C63.9031 88.7791 62.488 90.1942 60.775 90.1942Z" fill="url(#paint0_linear_22_163)"/>
<path d="M83.0442 90.1942H107.548C109.261 90.1942 110.676 88.7791 110.676 87.066V84.5338C110.676 84.0869 110.602 83.7145 110.453 83.3421L100.323 58.3916C99.3552 55.9337 95.9291 55.7103 94.663 58.0192L80.2885 83.1186C79.9906 83.5655 79.8416 84.1614 79.8416 84.6827V86.9916C79.8416 88.7791 81.3312 90.1942 83.0442 90.1942Z" fill="url(#paint1_linear_22_163)"/>
<path d="M83.789 90.1942H59.2109C57.4978 90.1942 56.0827 88.7791 56.0827 87.066V84.6082C56.0827 84.0869 56.2317 83.64 56.3807 83.1931L68.6697 58.0937C69.7869 55.7103 73.2129 55.7103 74.3301 58.0937L86.6192 83.1931C86.8426 83.64 86.9171 84.0869 86.9171 84.6082V87.066C86.9171 88.7791 85.502 90.1942 83.789 90.1942Z" fill="url(#paint2_linear_22_163)"/>
<path d="M98.089 57.8702C99.7755 57.8702 101.143 56.5031 101.143 54.8166C101.143 53.1301 99.7755 51.7629 98.089 51.7629C96.4026 51.7629 95.0354 53.1301 95.0354 54.8166C95.0354 56.5031 96.4026 57.8702 98.089 57.8702Z" fill="url(#paint3_linear_22_163)"/>
<path d="M71.4999 57.8702C73.1864 57.8702 74.5536 56.5031 74.5536 54.8166C74.5536 53.1301 73.1864 51.7629 71.4999 51.7629C69.8135 51.7629 68.4463 53.1301 68.4463 54.8166C68.4463 56.5031 69.8135 57.8702 71.4999 57.8702Z" fill="url(#paint4_linear_22_163)"/>
<path d="M45.5812 57.7957C47.2266 57.7957 48.5604 56.4619 48.5604 54.8166C48.5604 53.1712 47.2266 51.8374 45.5812 51.8374C43.9359 51.8374 42.6021 53.1712 42.6021 54.8166C42.6021 56.4619 43.9359 57.7957 45.5812 57.7957Z" fill="url(#paint5_linear_22_163)"/>
<path opacity="0.2" d="M98.089 53.327C98.9082 53.327 99.653 53.9973 99.653 54.8166C99.653 55.3379 99.4296 55.7848 98.9827 56.0827C98.6103 56.3062 98.3869 56.6785 98.3124 57.1254C98.2379 57.5723 98.3869 58.0192 98.6848 58.3171C98.8338 58.5405 98.9827 58.6895 99.0572 58.8384L109.261 83.8634L109.335 84.0869C109.41 84.2358 109.484 84.4593 109.484 84.5338V87.066C109.484 88.0343 108.442 89.077 107.548 89.077H36.2713C35.3775 89.077 34.3348 87.9598 34.3348 87.066V84.5338C34.3348 84.4593 34.4093 84.3103 34.4838 84.1614C34.5583 84.0869 34.5583 83.9379 34.6327 83.8634L44.9109 58.9129C44.9853 58.764 45.0598 58.5405 45.2088 58.3916C45.5067 58.0937 45.6556 57.6468 45.5812 57.1999C45.5067 56.753 45.2833 56.3806 44.8364 56.1572C44.3895 55.8593 44.0916 55.4124 44.0916 54.8166C44.0916 53.9973 44.7619 53.327 45.5812 53.327C46.4004 53.327 47.0708 53.9973 47.0708 54.8166C47.0708 55.2634 46.8473 55.5614 46.6984 55.7848C46.4004 56.1572 46.326 56.6041 46.4004 57.0509C46.4749 57.4978 46.7728 57.8702 47.1452 58.0937C47.4431 58.2426 47.6666 58.466 47.8155 58.764L58.3916 77.2348C58.6895 77.6817 59.1364 77.9796 59.6577 77.9796H59.7322C60.2536 77.9796 60.7749 77.6817 60.9984 77.1603L69.9359 58.8384C70.0848 58.615 70.1593 58.466 70.3827 58.2426C70.7551 57.9447 70.9041 57.5723 70.9041 57.1254C70.9041 56.6785 70.7551 56.3062 70.4572 56.0082C70.1593 55.7103 69.9359 55.3379 69.9359 54.891C69.9359 54.0718 70.6062 53.4015 71.4254 53.4015C72.2447 53.4015 72.915 54.0718 72.915 54.891C72.915 55.3379 72.7661 55.7103 72.3937 56.0082C72.0957 56.3062 71.8723 56.753 71.8723 57.1254C71.8723 57.4978 72.0957 57.9447 72.3937 58.2426C72.5426 58.3916 72.6916 58.615 72.8405 58.8384L82.2994 77.9051C82.5228 78.4265 83.0442 78.7244 83.5655 78.7244H83.64C84.1614 78.7244 84.6827 78.4265 84.9062 77.9796L95.9291 58.764C96.078 58.5405 96.3015 58.3171 96.5249 58.1681C96.8973 57.9447 97.1952 57.5723 97.2697 57.1254C97.3442 56.6785 97.1952 56.2317 96.9718 55.9338C96.8228 55.7103 96.5994 55.4124 96.5994 54.9655C96.5994 53.9973 97.2697 53.327 98.089 53.327ZM98.089 51.8374C96.4504 51.8374 95.0353 53.178 95.0353 54.8166C95.0353 55.5614 95.3333 56.2317 95.7801 56.753C95.3333 57.0509 94.8864 57.4233 94.5885 57.9447L83.64 77.2348L74.3301 58.0937C74.1067 57.6468 73.8088 57.3489 73.5109 57.0509C74.1067 56.5296 74.4791 55.7103 74.4791 54.8166C74.4791 53.178 73.1385 51.8374 71.4254 51.8374C69.7869 51.8374 68.4463 53.178 68.4463 54.8166C68.4463 55.7103 68.8187 56.5296 69.4145 57.0509C69.1166 57.3489 68.8187 57.6468 68.5952 58.0937L59.6577 76.4155L49.1562 57.9447C48.8583 57.4233 48.4114 56.9765 47.89 56.753C48.3369 56.2317 48.5603 55.5614 48.5603 54.8166C48.5603 53.178 47.2197 51.8374 45.5812 51.8374C43.9426 51.8374 42.602 53.178 42.602 54.8166C42.602 55.9338 43.1978 56.902 44.0916 57.4233C43.8681 57.6468 43.6447 58.0192 43.4958 58.3171L33.1431 83.2676C32.9942 83.64 32.7708 84.0869 32.7708 84.4593V86.9916C32.7708 88.7046 34.4838 90.4921 36.1968 90.4921H107.548C109.261 90.4921 110.974 88.7046 110.974 86.9916V84.4593C110.974 84.0124 110.75 83.64 110.601 83.2676L100.398 58.3171C100.249 57.9447 100.025 57.6468 99.7275 57.3489C100.547 56.8275 101.143 55.8593 101.143 54.8166C101.143 53.178 99.802 51.8374 98.089 51.8374Z" fill="#424242"/>
<path d="M98.387 97.7166H44.5386C37.9844 97.7166 32.6219 92.3541 32.6219 85.8V73.8088H110.304V85.8C110.304 92.3541 104.941 97.7166 98.387 97.7166Z" fill="#FDD835"/>
<path d="M107.473 60.1046L101.441 70.9041C99.951 72.3192 97.4932 71.7979 96.6739 69.9359L88.9281 48.9328C87.8109 46.6984 84.6083 46.7729 83.3422 48.9328L74.1812 68.8187C73.064 70.9041 70.0104 70.9041 68.8932 68.7442L60.1791 48.9328C59.062 46.5494 55.6359 46.5494 54.5187 48.9328L47.0708 69.8614C46.2515 71.7979 43.7937 72.3192 42.3041 70.9041L36.3458 60.1046C34.4094 57.7213 30.5364 59.2854 30.7599 62.339L32.9943 93.3968C32.9943 98.7593 37.1651 103.228 42.3041 103.228H45.5812H46.6239H71.1276H72.2448H96.9718H98.0146H101.292C106.431 103.228 110.676 98.6848 110.676 93.3968L112.91 62.339C113.283 59.2854 109.484 57.7213 107.473 60.1046Z" fill="url(#paint6_linear_22_163)"/>
<path d="M86.7682 49.901C89.6887 49.901 92.0563 47.5335 92.0563 44.613C92.0563 41.6925 89.6887 39.325 86.7682 39.325C83.8478 39.325 81.4802 41.6925 81.4802 44.613C81.4802 47.5335 83.8478 49.901 86.7682 49.901Z" fill="url(#paint7_linear_22_163)"/>
<path d="M57.0511 49.901C59.9716 49.901 62.3391 47.5335 62.3391 44.613C62.3391 41.6925 59.9716 39.325 57.0511 39.325C54.1306 39.325 51.7631 41.6925 51.7631 44.613C51.7631 47.5335 54.1306 49.901 57.0511 49.901Z" fill="url(#paint8_linear_22_163)"/>
<path d="M31.3557 62.1902C33.8649 62.1902 35.899 60.1561 35.899 57.647C35.899 55.1378 33.8649 53.1038 31.3557 53.1038C28.8466 53.1038 26.8125 55.1378 26.8125 57.647C26.8125 60.1561 28.8466 62.1902 31.3557 62.1902Z" fill="url(#paint9_linear_22_163)"/>
<path d="M111.644 62.1902C114.153 62.1902 116.187 60.1561 116.187 57.647C116.187 55.1378 114.153 53.1038 111.644 53.1038C109.135 53.1038 107.101 55.1378 107.101 57.647C107.101 60.1561 109.135 62.1902 111.644 62.1902Z" fill="url(#paint10_linear_22_163)"/>
<path opacity="0.2" d="M86.7682 41.5593C88.4813 41.5593 89.8219 42.8999 89.8219 44.613C89.8219 45.8046 89.1516 46.8473 88.1089 47.3687C87.0662 47.8901 86.6193 49.0817 86.9917 50.1244L94.5885 70.6807L94.663 70.8296C95.4823 72.7661 97.3443 73.9578 99.4297 73.9578C100.77 73.9578 101.962 73.4364 103.005 72.5427C103.154 72.3937 103.303 72.1703 103.452 72.0213L109.335 61.4453C110.006 60.7005 110.155 59.6578 109.708 58.764C109.559 58.3916 109.41 58.0192 109.41 57.6468C109.41 56.3807 110.453 55.338 111.719 55.338C112.985 55.338 114.028 56.3807 114.028 57.6468C114.028 58.6151 113.357 59.5088 112.464 59.8067C111.495 60.1046 110.899 60.9984 110.899 61.9666V62.1156L108.665 93.0989V93.2479C108.665 95.3333 107.846 97.3442 106.356 98.7593C105.016 100.1 103.303 100.845 101.515 100.845H42.3042C40.5167 100.845 38.8036 100.1 37.463 98.7593C35.9734 97.3442 35.1542 95.2588 35.1542 93.2479C35.1542 93.1734 35.1542 93.0989 35.1542 93.0989L32.9198 62.1156V61.9666C32.9198 60.8494 32.1005 59.9557 30.9833 59.8067C29.8661 59.8067 29.0469 58.8385 29.0469 57.6468C29.0469 56.3807 30.0896 55.338 31.3557 55.338C32.6219 55.338 33.6646 56.3807 33.6646 57.6468C33.6646 57.9447 33.5901 58.2427 33.5156 58.5406C33.0688 59.5833 33.4411 60.7005 34.4094 61.2963C34.4839 61.2963 34.4839 61.3708 34.5583 61.3708L40.3677 71.9468C40.4422 72.1703 40.6656 72.3192 40.8146 72.4682C41.7828 73.3619 43.049 73.8833 44.3896 73.8833C46.475 73.8833 48.4115 72.6171 49.2307 70.6807C49.2307 70.6807 49.2307 70.6062 49.3052 70.6062L56.6786 49.9755C57.051 48.9328 56.6042 47.8156 55.7104 47.2942C54.7422 46.7729 54.1464 45.7302 54.1464 44.6874C54.1464 42.9744 55.487 41.6338 57.2 41.6338C58.913 41.6338 60.2536 42.9744 60.2536 44.6874C60.2536 45.6557 59.8068 46.5494 58.9875 47.1453C58.0938 47.8156 57.7958 49.0072 58.3172 49.9755L66.8823 69.7124C66.8823 69.7869 66.8823 69.7869 66.9568 69.8614C67.8505 71.5744 69.638 72.6916 71.5745 72.6916C73.5109 72.6916 75.224 71.6489 76.1922 69.9359C76.1922 69.8614 76.2667 69.8614 76.2667 69.7869L85.3531 50.0499C86.0234 49.0817 85.8 47.8156 84.9062 47.0708C84.1615 46.475 83.7146 45.5812 83.7146 44.6874C83.7146 42.9744 85.0552 41.5593 86.7682 41.5593ZM86.7682 39.325C83.8635 39.325 81.4802 41.7083 81.4802 44.613C81.4802 46.2515 82.2995 47.7411 83.4911 48.7093C83.4167 48.8583 83.3422 48.8583 83.3422 48.9328L74.1813 68.8187C73.5854 69.8614 72.6172 70.3828 71.5745 70.3828C70.5318 70.3828 69.4891 69.8614 68.8932 68.7442L60.1792 48.9328C60.1792 48.9328 60.1792 48.9328 60.1792 48.8583C61.5198 47.8901 62.3391 46.326 62.3391 44.613C62.3391 41.7083 59.9557 39.325 57.051 39.325C54.1464 39.325 51.763 41.7083 51.763 44.613C51.763 46.5494 52.8057 48.2625 54.4443 49.2307L47.0708 69.8614C46.5495 71.0531 45.4323 71.7234 44.3151 71.7234C43.5703 71.7234 42.9 71.4999 42.3042 70.9041L36.3458 60.1046C36.1224 59.8067 35.8245 59.5833 35.5266 59.4343C35.75 58.913 35.899 58.3171 35.899 57.7213C35.899 55.189 33.888 53.1781 31.3557 53.1781C28.8979 53.1781 26.8125 55.189 26.8125 57.7213C26.8125 60.0302 28.5255 61.8921 30.7599 62.1901V62.339L32.9943 93.3968C32.9943 98.7593 37.1651 103.228 42.3786 103.228H45.6557H46.6984H97.1208H98.1635H101.441C106.58 103.228 110.825 98.6848 110.825 93.3968L113.059 62.339C113.059 62.1901 113.059 62.1156 113.059 62.0411C114.847 61.4453 116.188 59.7322 116.188 57.7213C116.188 55.189 114.177 53.1781 111.644 53.1781C109.112 53.1781 107.101 55.189 107.101 57.7213C107.101 58.5406 107.324 59.2854 107.697 59.8812C107.622 59.9557 107.548 60.0302 107.473 60.1046L101.441 70.9041C100.845 71.4255 100.1 71.7234 99.4297 71.7234C98.3125 71.7234 97.1953 71.0531 96.674 69.9359L89.0771 49.3796C90.7901 48.4859 92.0563 46.6984 92.0563 44.613C92.0563 41.7083 89.6729 39.325 86.7682 39.325Z" fill="#424242"/>
<path d="M71.8724 92.5032C76.4793 92.5032 80.214 88.7685 80.214 84.1615C80.214 79.5545 76.4793 75.8198 71.8724 75.8198C67.2654 75.8198 63.5307 79.5545 63.5307 84.1615C63.5307 88.7685 67.2654 92.5032 71.8724 92.5032Z" fill="url(#paint11_linear_22_163)"/>
<path d="M51.763 88.9281C54.3956 88.9281 56.5297 86.794 56.5297 84.1614C56.5297 81.5289 54.3956 79.3948 51.763 79.3948C49.1305 79.3948 46.9964 81.5289 46.9964 84.1614C46.9964 86.794 49.1305 88.9281 51.763 88.9281Z" fill="url(#paint12_linear_22_163)"/>
<path d="M92.0562 88.9281C94.6888 88.9281 96.8229 86.794 96.8229 84.1614C96.8229 81.5289 94.6888 79.3948 92.0562 79.3948C89.4237 79.3948 87.2896 81.5289 87.2896 84.1614C87.2896 86.794 89.4237 88.9281 92.0562 88.9281Z" fill="url(#paint13_linear_22_163)"/>
<path d="M33.1432 89.6728C35.4467 89.6728 37.314 87.2053 37.314 84.1614C37.314 81.1175 35.4467 78.6499 33.1432 78.6499C30.8397 78.6499 28.9724 81.1175 28.9724 84.1614C28.9724 87.2053 30.8397 89.6728 33.1432 89.6728Z" fill="url(#paint14_linear_22_163)"/>
<path d="M110.676 89.6728C112.98 89.6728 114.847 87.2053 114.847 84.1614C114.847 81.1175 112.98 78.6499 110.676 78.6499C108.373 78.6499 106.505 81.1175 106.505 84.1614C106.505 87.2053 108.373 89.6728 110.676 89.6728Z" fill="url(#paint15_linear_22_163)"/>
<path opacity="0.2" d="M33.1432 80.1395C34.6328 80.1395 35.8245 82.0015 35.8245 84.1614C35.8245 86.3213 34.5583 88.1832 33.1432 88.1832C31.7281 88.1832 30.462 86.3213 30.462 84.1614C30.462 82.0015 31.6536 80.1395 33.1432 80.1395ZM33.1432 78.6499C30.8344 78.6499 28.9724 81.1077 28.9724 84.1614C28.9724 87.215 30.8344 89.6728 33.1432 89.6728C35.4521 89.6728 37.314 87.215 37.314 84.1614C37.314 81.1077 35.4521 78.6499 33.1432 78.6499Z" fill="#424242"/>
<path opacity="0.2" d="M110.676 80.1395C112.166 80.1395 113.357 82.0015 113.357 84.1614C113.357 86.3213 112.091 88.1832 110.676 88.1832C109.261 88.1832 107.995 86.3213 107.995 84.1614C107.995 82.0015 109.186 80.1395 110.676 80.1395ZM110.676 78.6499C108.367 78.6499 106.505 81.1077 106.505 84.1614C106.505 87.215 108.367 89.6728 110.676 89.6728C112.985 89.6728 114.847 87.215 114.847 84.1614C114.847 81.1077 112.985 78.6499 110.676 78.6499Z" fill="#424242"/>
<path opacity="0.2" d="M71.8724 77.3094C75.6708 77.3094 78.7244 80.3631 78.7244 84.1615C78.7244 87.9599 75.6708 91.0136 71.8724 91.0136C68.0739 91.0136 65.0203 87.9599 65.0203 84.1615C65.0203 80.3631 68.1484 77.3094 71.8724 77.3094ZM71.8724 75.8198C67.2547 75.8198 63.5307 79.5438 63.5307 84.1615C63.5307 88.7792 67.2547 92.5032 71.8724 92.5032C76.4901 92.5032 80.214 88.7792 80.214 84.1615C80.214 79.5438 76.4901 75.8198 71.8724 75.8198Z" fill="#424242"/>
<path opacity="0.2" d="M51.763 80.8844C53.5505 80.8844 55.0401 82.3739 55.0401 84.1614C55.0401 85.9489 53.5505 87.4385 51.763 87.4385C49.9755 87.4385 48.486 85.9489 48.486 84.1614C48.486 82.3739 49.9011 80.8844 51.763 80.8844ZM51.763 79.3948C49.1563 79.3948 46.9964 81.4802 46.9964 84.1614C46.9964 86.8427 49.0818 88.9281 51.763 88.9281C54.4443 88.9281 56.5297 86.8427 56.5297 84.1614C56.5297 81.4802 54.3698 79.3948 51.763 79.3948Z" fill="#424242"/>
<path opacity="0.2" d="M92.0561 80.8844C93.8436 80.8844 95.3332 82.3739 95.3332 84.1614C95.3332 85.9489 93.8436 87.4385 92.0561 87.4385C90.2686 87.4385 88.779 85.9489 88.779 84.1614C88.779 82.3739 90.2686 80.8844 92.0561 80.8844ZM92.0561 79.3948C89.4493 79.3948 87.2894 81.4802 87.2894 84.1614C87.2894 86.8427 89.3748 88.9281 92.0561 88.9281C94.7373 88.9281 96.8228 86.8427 96.8228 84.1614C96.8228 81.4802 94.6629 79.3948 92.0561 79.3948Z" fill="#424242"/>
<defs>
<linearGradient id="paint0_linear_22_163" x1="48.5604" y1="32.8451" x2="48.5604" y2="91.4678" gradientUnits="userSpaceOnUse">
<stop offset="0.0577" stop-color="#FDD835"/>
<stop offset="0.7565" stop-color="#F9A825"/>
</linearGradient>
<linearGradient id="paint1_linear_22_163" x1="95.2588" y1="32.8451" x2="95.2588" y2="91.4678" gradientUnits="userSpaceOnUse">
<stop offset="0.0577" stop-color="#FDD835"/>
<stop offset="0.7565" stop-color="#F9A825"/>
</linearGradient>
<linearGradient id="paint2_linear_22_163" x1="71.4999" y1="32.8451" x2="71.4999" y2="91.4678" gradientUnits="userSpaceOnUse">
<stop offset="0.0577" stop-color="#FDD835"/>
<stop offset="0.7565" stop-color="#F9A825"/>
</linearGradient>
<linearGradient id="paint3_linear_22_163" x1="98.089" y1="32.8452" x2="98.089" y2="91.4678" gradientUnits="userSpaceOnUse">
<stop offset="0.0577" stop-color="#FDD835"/>
<stop offset="0.7565" stop-color="#F9A825"/>
</linearGradient>
<linearGradient id="paint4_linear_22_163" x1="71.4999" y1="32.8452" x2="71.4999" y2="91.4678" gradientUnits="userSpaceOnUse">
<stop offset="0.0577" stop-color="#FDD835"/>
<stop offset="0.7565" stop-color="#F9A825"/>
</linearGradient>
<linearGradient id="paint5_linear_22_163" x1="45.5812" y1="32.8451" x2="45.5812" y2="91.4678" gradientUnits="userSpaceOnUse">
<stop offset="0.0577" stop-color="#FDD835"/>
<stop offset="0.7565" stop-color="#F9A825"/>
</linearGradient>
<linearGradient id="paint6_linear_22_163" x1="71.8433" y1="21.4324" x2="71.8433" y2="103.168" gradientUnits="userSpaceOnUse">
<stop offset="0.2467" stop-color="#FFEB3B"/>
<stop offset="0.4378" stop-color="#FFE639"/>
<stop offset="0.6718" stop-color="#FDD734"/>
<stop offset="0.9102" stop-color="#FBC02D"/>
</linearGradient>
<linearGradient id="paint7_linear_22_163" x1="86.7682" y1="38.6173" x2="86.7682" y2="102.811" gradientUnits="userSpaceOnUse">
<stop stop-color="#FFEB3B"/>
<stop offset="1" stop-color="#FBC02D"/>
</linearGradient>
<linearGradient id="paint8_linear_22_163" x1="57.0511" y1="38.6173" x2="57.0511" y2="102.811" gradientUnits="userSpaceOnUse">
<stop stop-color="#FFEB3B"/>
<stop offset="1" stop-color="#FBC02D"/>
</linearGradient>
<linearGradient id="paint9_linear_22_163" x1="31.3557" y1="38.6175" x2="31.3557" y2="102.811" gradientUnits="userSpaceOnUse">
<stop stop-color="#FFEB3B"/>
<stop offset="1" stop-color="#FBC02D"/>
</linearGradient>
<linearGradient id="paint10_linear_22_163" x1="111.644" y1="38.6175" x2="111.644" y2="102.811" gradientUnits="userSpaceOnUse">
<stop stop-color="#FFEB3B"/>
<stop offset="1" stop-color="#FBC02D"/>
</linearGradient>
<linearGradient id="paint11_linear_22_163" x1="65.9963" y1="78.2858" x2="77.741" y2="90.0297" gradientUnits="userSpaceOnUse">
<stop stop-color="#29B6F6"/>
<stop offset="1" stop-color="#039BE5"/>
</linearGradient>
<linearGradient id="paint12_linear_22_163" x1="48.3748" y1="80.7732" x2="55.0843" y2="87.4827" gradientUnits="userSpaceOnUse">
<stop stop-color="#F06292"/>
<stop offset="1" stop-color="#E91E63"/>
</linearGradient>
<linearGradient id="paint13_linear_22_163" x1="88.6857" y1="80.7909" x2="95.3952" y2="87.5003" gradientUnits="userSpaceOnUse">
<stop stop-color="#F06292"/>
<stop offset="1" stop-color="#E91E63"/>
</linearGradient>
<linearGradient id="paint14_linear_22_163" x1="29.6766" y1="80.695" x2="36.5801" y2="87.598" gradientUnits="userSpaceOnUse">
<stop stop-color="#29B6F6"/>
<stop offset="1" stop-color="#039BE5"/>
</linearGradient>
<linearGradient id="paint15_linear_22_163" x1="107.198" y1="80.6842" x2="114.102" y2="87.5864" gradientUnits="userSpaceOnUse">
<stop stop-color="#29B6F6"/>
<stop offset="1" stop-color="#039BE5"/>
</linearGradient>
</defs>
</svg>
