<svg width="143" height="143" viewBox="0 0 143 143" fill="none" xmlns="http://www.w3.org/2000/svg">
<circle cx="71.5" cy="71.5" r="71.5" fill="#FFCBC7"/>
<path d="M46.927 52.9169C46.4572 57.9281 46.1275 66.7968 49.0864 70.5717C49.0864 70.5717 47.6935 60.8294 60.1805 48.6062C65.2082 43.6856 66.3704 36.9929 64.6148 31.9733C63.6175 29.1298 61.796 26.7807 60.2134 25.1405C59.2903 24.1762 59.9991 22.5854 61.3426 22.6431C69.4695 23.0058 82.6406 25.2642 88.237 39.3089C90.6932 45.4741 90.8746 51.8454 89.7042 58.3238C88.9624 62.4614 86.3249 71.6597 92.3417 72.7889C96.6359 73.5966 98.7129 70.1843 99.6443 67.7282C100.032 66.7061 101.375 66.4506 102.1 67.2666C109.354 75.5171 109.972 85.2347 108.472 93.6005C105.57 109.772 89.1931 121.542 72.923 121.542C52.5976 121.542 36.4181 109.912 32.2228 88.8613C30.5332 80.3635 31.3903 63.5493 44.4955 51.6805C45.4681 50.7904 47.0588 51.5816 46.927 52.9169Z" fill="url(#paint0_radial_22_161)"/>
<path d="M80.3493 83.1577C72.8571 73.5143 76.2117 62.5109 78.0497 58.126C78.297 57.5491 77.6376 57.0051 77.1183 57.3595C73.8956 59.5519 67.2936 64.7116 64.2192 71.973C60.0569 81.7895 60.3536 86.5947 62.818 92.4632C64.3016 95.9991 62.579 96.7492 61.7136 96.881C60.8729 97.0129 60.0981 96.4524 59.4799 95.8672C57.7079 94.1776 56.4303 91.9769 55.8204 89.6031C55.6885 89.0921 55.0209 88.952 54.7159 89.3724C52.4081 92.5621 51.213 97.6805 51.1553 101.299C50.9739 112.484 60.2135 121.55 71.39 121.55C85.4759 121.55 95.7375 105.972 87.6437 92.9495C85.2946 89.1581 83.0857 86.6771 80.3493 83.1577Z" fill="url(#paint1_radial_22_161)"/>
<defs>
<radialGradient id="paint0_radial_22_161" cx="0" cy="0" r="1" gradientUnits="userSpaceOnUse" gradientTransform="translate(68.8975 121.798) rotate(-179.751) scale(58.18 95.4618)">
<stop offset="0.3144" stop-color="#FF9800"/>
<stop offset="0.6616" stop-color="#FF6D00"/>
<stop offset="0.9715" stop-color="#F44336"/>
</radialGradient>
<radialGradient id="paint1_radial_22_161" cx="0" cy="0" r="1" gradientUnits="userSpaceOnUse" gradientTransform="translate(72.1646 63.9029) rotate(90.5787) scale(60.8741 45.8123)">
<stop offset="0.2141" stop-color="#FFF176"/>
<stop offset="0.3275" stop-color="#FFF27D"/>
<stop offset="0.4868" stop-color="#FFF48F"/>
<stop offset="0.6722" stop-color="#FFF7AD"/>
<stop offset="0.7931" stop-color="#FFF9C4"/>
<stop offset="0.8221" stop-color="#FFF8BD" stop-opacity="0.804"/>
<stop offset="0.8627" stop-color="#FFF6AB" stop-opacity="0.529"/>
<stop offset="0.9101" stop-color="#FFF38D" stop-opacity="0.2088"/>
<stop offset="0.9409" stop-color="#FFF176" stop-opacity="0"/>
</radialGradient>
</defs>
</svg>
