<svg width="80" height="80" viewBox="0 0 80 80" fill="none" xmlns="http://www.w3.org/2000/svg">
<circle cx="40" cy="40" r="40" fill="#F44336"/>
<path d="M40 53.2563C39.7667 53.2563 39.5479 53.2195 39.3437 53.146C39.1396 53.0737 38.95 52.95 38.775 52.775L27.225 41.225C26.875 40.875 26.7 40.4591 26.7 39.9773C26.7 39.4966 26.875 39.0812 27.225 38.7312C27.575 38.3812 27.9833 38.2063 28.45 38.2063C28.9167 38.2063 29.325 38.3812 29.675 38.7312L38.25 47.3062V27.7062C38.25 27.2104 38.418 26.8021 38.754 26.4813C39.0888 26.1604 39.5042 26 40 26C40.4958 26 40.9117 26.1674 41.2477 26.5023C41.5826 26.8383 41.75 27.2542 41.75 27.75V47.3062L50.325 38.7312C50.675 38.3812 51.0833 38.2063 51.55 38.2063C52.0167 38.2063 52.425 38.3812 52.775 38.7312C53.125 39.0812 53.3 39.4966 53.3 39.9773C53.3 40.4591 53.125 40.875 52.775 41.225L41.225 52.775C41.05 52.95 40.8604 53.0737 40.6562 53.146C40.4521 53.2195 40.2333 53.2563 40 53.2563Z" fill="white"/>
</svg>
