<svg width="121" height="120" viewBox="0 0 121 120" fill="none" xmlns="http://www.w3.org/2000/svg">
<circle cx="60.5" cy="60" r="60" fill="#DFF6FF"/>
<path d="M70.5 66.6667C61.6 66.6667 43.8333 71.1 43.8333 80V86.6667H97.1666V80C97.1666 71.1 79.4 66.6667 70.5 66.6667ZM40.5 53.3334V43.3334H33.8333V53.3334H23.8333V60H33.8333V70H40.5V60H50.5V53.3334M70.5 60C74.0362 60 77.4276 58.5953 79.9281 56.0948C82.4286 53.5943 83.8333 50.2029 83.8333 46.6667C83.8333 43.1305 82.4286 39.7391 79.9281 37.2386C77.4276 34.7381 74.0362 33.3334 70.5 33.3334C66.9638 33.3334 63.5724 34.7381 61.0719 37.2386C58.5714 39.7391 57.1666 43.1305 57.1666 46.6667C57.1666 50.2029 58.5714 53.5943 61.0719 56.0948C63.5724 58.5953 66.9638 60 70.5 60Z" fill="#42AAC0"/>
</svg>
