<svg width="121" height="120" viewBox="0 0 121 120" fill="none" xmlns="http://www.w3.org/2000/svg">
<circle cx="60.5" cy="60" r="60" fill="#DFF6FF"/>
<path d="M47.1667 76.6667C48.1111 76.6667 48.9033 76.3467 49.5433 75.7067C50.1811 75.0689 50.5 74.2778 50.5 73.3333C50.5 72.3889 50.1811 71.5967 49.5433 70.9567C48.9033 70.3189 48.1111 70 47.1667 70C46.2222 70 45.43 70.3189 44.79 70.9567C44.1522 71.5967 43.8333 72.3889 43.8333 73.3333C43.8333 74.2778 44.1522 75.0689 44.79 75.7067C45.43 76.3467 46.2222 76.6667 47.1667 76.6667ZM47.1667 63.3333C48.1111 63.3333 48.9033 63.0133 49.5433 62.3733C50.1811 61.7356 50.5 60.9444 50.5 60C50.5 59.0556 50.1811 58.2633 49.5433 57.6233C48.9033 56.9856 48.1111 56.6667 47.1667 56.6667C46.2222 56.6667 45.43 56.9856 44.79 57.6233C44.1522 58.2633 43.8333 59.0556 43.8333 60C43.8333 60.9444 44.1522 61.7356 44.79 62.3733C45.43 63.0133 46.2222 63.3333 47.1667 63.3333ZM47.1667 50C48.1111 50 48.9033 49.68 49.5433 49.04C50.1811 48.4022 50.5 47.6111 50.5 46.6667C50.5 45.7222 50.1811 44.93 49.5433 44.29C48.9033 43.6522 48.1111 43.3333 47.1667 43.3333C46.2222 43.3333 45.43 43.6522 44.79 44.29C44.1522 44.93 43.8333 45.7222 43.8333 46.6667C43.8333 47.6111 44.1522 48.4022 44.79 49.04C45.43 49.68 46.2222 50 47.1667 50ZM57.1667 76.6667H77.1667V70H57.1667V76.6667ZM57.1667 63.3333H77.1667V56.6667H57.1667V63.3333ZM57.1667 50H77.1667V43.3333H57.1667V50ZM37.1667 90C35.3333 90 33.7633 89.3478 32.4567 88.0433C31.1522 86.7367 30.5 85.1667 30.5 83.3333V36.6667C30.5 34.8333 31.1522 33.2633 32.4567 31.9567C33.7633 30.6522 35.3333 30 37.1667 30H83.8333C85.6667 30 87.2367 30.6522 88.5433 31.9567C89.8478 33.2633 90.5 34.8333 90.5 36.6667V83.3333C90.5 85.1667 89.8478 86.7367 88.5433 88.0433C87.2367 89.3478 85.6667 90 83.8333 90H37.1667Z" fill="#42AAC0"/>
</svg>
